<mxfile host="app.diagrams.net" modified="2021-05-31T08:38:50.348Z" agent="5.0 (X11; Linux x86_64) AppleWebKit/537.36 (KHTML, like Gecko) Chrome/91.0.4472.69 Safari/537.36 Edg/91.0.864.33" etag="hArb-LDZkEpyvXRKAl0H" version="14.7.3" type="github">
  <diagram id="2YkALZLfMIR4Kuwv7n4X" name="Page-1">
    <mxGraphModel dx="1390" dy="1020" grid="1" gridSize="10" guides="1" tooltips="1" connect="1" arrows="1" fold="1" page="0" pageScale="1" pageWidth="827" pageHeight="1169" math="0" shadow="0">
      <root>
        <mxCell id="0" />
        <mxCell id="1" parent="0" />
        <mxCell id="9j_dZQjuh-3zN6oxzRRZ-53" value="&lt;div&gt;&lt;b style=&quot;font-size: 14px&quot;&gt;sendGoal()&lt;/b&gt;&lt;/div&gt;&lt;div&gt;&lt;b style=&quot;font-size: 14px&quot;&gt;&lt;br&gt;&lt;/b&gt;&lt;/div&gt;&lt;div&gt;&lt;b style=&quot;font-size: 14px&quot;&gt;&lt;br&gt;&lt;/b&gt;&lt;/div&gt;&lt;div&gt;&lt;b style=&quot;font-size: 14px&quot;&gt;&lt;br&gt;&lt;/b&gt;&lt;/div&gt;&lt;div&gt;&lt;b style=&quot;font-size: 14px&quot;&gt;&lt;br&gt;&lt;/b&gt;&lt;/div&gt;&lt;div&gt;&lt;b style=&quot;font-size: 14px&quot;&gt;&lt;br&gt;&lt;/b&gt;&lt;/div&gt;&lt;div&gt;&lt;b style=&quot;font-size: 14px&quot;&gt;&lt;br&gt;&lt;/b&gt;&lt;/div&gt;&lt;div&gt;&lt;b style=&quot;font-size: 14px&quot;&gt;&lt;br&gt;&lt;/b&gt;&lt;/div&gt;&lt;div&gt;&lt;b style=&quot;font-size: 14px&quot;&gt;&lt;br&gt;&lt;/b&gt;&lt;/div&gt;&lt;div&gt;&lt;b style=&quot;font-size: 14px&quot;&gt;&lt;br&gt;&lt;/b&gt;&lt;/div&gt;&lt;div&gt;&lt;b style=&quot;font-size: 14px&quot;&gt;&lt;br&gt;&lt;/b&gt;&lt;/div&gt;&lt;div&gt;&lt;b style=&quot;font-size: 14px&quot;&gt;&lt;br&gt;&lt;/b&gt;&lt;/div&gt;&lt;div&gt;&lt;b style=&quot;font-size: 14px&quot;&gt;&lt;br&gt;&lt;/b&gt;&lt;/div&gt;&lt;div&gt;&lt;br&gt;&lt;/div&gt;" style="rounded=1;whiteSpace=wrap;html=1;fontSize=12;align=center;" vertex="1" parent="1">
          <mxGeometry x="390" y="280" width="180" height="260" as="geometry" />
        </mxCell>
        <mxCell id="9j_dZQjuh-3zN6oxzRRZ-54" style="edgeStyle=orthogonalEdgeStyle;rounded=0;orthogonalLoop=1;jettySize=auto;html=1;exitX=1;exitY=0.75;exitDx=0;exitDy=0;entryX=0.002;entryY=0.721;entryDx=0;entryDy=0;entryPerimeter=0;fontSize=12;startArrow=none;startFill=0;endArrow=classicThin;endFill=1;" edge="1" parent="1" source="9j_dZQjuh-3zN6oxzRRZ-51" target="9j_dZQjuh-3zN6oxzRRZ-53">
          <mxGeometry relative="1" as="geometry" />
        </mxCell>
        <mxCell id="9j_dZQjuh-3zN6oxzRRZ-55" value="send &lt;b&gt;result&lt;/b&gt;" style="edgeLabel;html=1;align=center;verticalAlign=middle;resizable=0;points=[];fontSize=12;" vertex="1" connectable="0" parent="9j_dZQjuh-3zN6oxzRRZ-54">
          <mxGeometry x="-0.1216" y="-2" relative="1" as="geometry">
            <mxPoint as="offset" />
          </mxGeometry>
        </mxCell>
        <mxCell id="9j_dZQjuh-3zN6oxzRRZ-51" value="&lt;font style=&quot;font-size: 14px&quot;&gt;&lt;b&gt;GoalCallback()&lt;br&gt;&lt;br&gt;&lt;br&gt;&lt;br&gt;&lt;br&gt;&lt;br&gt;&lt;br&gt;&lt;br&gt;&lt;br&gt;&lt;br&gt;&lt;br&gt;&lt;br&gt;&lt;br&gt;&lt;/b&gt;&lt;/font&gt;" style="rounded=1;whiteSpace=wrap;html=1;fontSize=12;" vertex="1" parent="1">
          <mxGeometry x="-10" y="280" width="180" height="250" as="geometry" />
        </mxCell>
        <mxCell id="9j_dZQjuh-3zN6oxzRRZ-5" value="&lt;font style=&quot;font-size: 14px&quot;&gt;&lt;b&gt;Server&lt;/b&gt;&lt;/font&gt;" style="text;html=1;strokeColor=none;fillColor=none;align=center;verticalAlign=middle;whiteSpace=wrap;rounded=0;" vertex="1" parent="1">
          <mxGeometry y="60" width="160" height="40" as="geometry" />
        </mxCell>
        <mxCell id="9j_dZQjuh-3zN6oxzRRZ-6" value="&lt;font style=&quot;font-size: 14px&quot;&gt;&lt;b&gt;Client&lt;/b&gt;&lt;/font&gt;" style="text;html=1;strokeColor=none;fillColor=none;align=center;verticalAlign=middle;whiteSpace=wrap;rounded=0;" vertex="1" parent="1">
          <mxGeometry x="400" y="60" width="160" height="40" as="geometry" />
        </mxCell>
        <mxCell id="9j_dZQjuh-3zN6oxzRRZ-25" value="" style="endArrow=classic;html=1;" edge="1" parent="1">
          <mxGeometry width="50" height="50" relative="1" as="geometry">
            <mxPoint x="380" y="330" as="sourcePoint" />
            <mxPoint x="170" y="330" as="targetPoint" />
          </mxGeometry>
        </mxCell>
        <mxCell id="9j_dZQjuh-3zN6oxzRRZ-26" value="send &lt;b&gt;goal&lt;/b&gt;: x y theta" style="edgeLabel;html=1;align=center;verticalAlign=middle;resizable=0;points=[];fontSize=12;" vertex="1" connectable="0" parent="9j_dZQjuh-3zN6oxzRRZ-25">
          <mxGeometry x="-0.305" relative="1" as="geometry">
            <mxPoint x="-40" as="offset" />
          </mxGeometry>
        </mxCell>
        <mxCell id="9j_dZQjuh-3zN6oxzRRZ-28" value="initialization&amp;nbsp;" style="rounded=0;whiteSpace=wrap;html=1;" vertex="1" parent="1">
          <mxGeometry x="400" y="100" width="160" height="40" as="geometry" />
        </mxCell>
        <mxCell id="9j_dZQjuh-3zN6oxzRRZ-29" value="create a client" style="rounded=0;whiteSpace=wrap;html=1;" vertex="1" parent="1">
          <mxGeometry x="400" y="160" width="160" height="40" as="geometry" />
        </mxCell>
        <mxCell id="9j_dZQjuh-3zN6oxzRRZ-30" value="client.waitForServer()" style="rounded=0;whiteSpace=wrap;html=1;" vertex="1" parent="1">
          <mxGeometry x="400" y="220" width="160" height="40" as="geometry" />
        </mxCell>
        <mxCell id="9j_dZQjuh-3zN6oxzRRZ-31" value="initialization&amp;nbsp;" style="rounded=0;whiteSpace=wrap;html=1;" vertex="1" parent="1">
          <mxGeometry y="100" width="160" height="40" as="geometry" />
        </mxCell>
        <mxCell id="9j_dZQjuh-3zN6oxzRRZ-32" value="create a server" style="rounded=0;whiteSpace=wrap;html=1;" vertex="1" parent="1">
          <mxGeometry y="160" width="160" height="40" as="geometry" />
        </mxCell>
        <mxCell id="9j_dZQjuh-3zN6oxzRRZ-34" style="edgeStyle=orthogonalEdgeStyle;rounded=0;orthogonalLoop=1;jettySize=auto;html=1;exitX=1;exitY=0.5;exitDx=0;exitDy=0;entryX=0;entryY=0.5;entryDx=0;entryDy=0;startArrow=classicThin;startFill=1;endArrow=classicThin;endFill=1;" edge="1" parent="1" source="9j_dZQjuh-3zN6oxzRRZ-33" target="9j_dZQjuh-3zN6oxzRRZ-30">
          <mxGeometry relative="1" as="geometry" />
        </mxCell>
        <mxCell id="9j_dZQjuh-3zN6oxzRRZ-37" value="build connection" style="edgeLabel;html=1;align=center;verticalAlign=middle;resizable=0;points=[];fontSize=12;" vertex="1" connectable="0" parent="9j_dZQjuh-3zN6oxzRRZ-34">
          <mxGeometry x="0.0867" y="-2" relative="1" as="geometry">
            <mxPoint x="-10" y="-2" as="offset" />
          </mxGeometry>
        </mxCell>
        <mxCell id="9j_dZQjuh-3zN6oxzRRZ-33" value="server.start()" style="rounded=0;whiteSpace=wrap;html=1;" vertex="1" parent="1">
          <mxGeometry y="220" width="160" height="40" as="geometry" />
        </mxCell>
        <mxCell id="9j_dZQjuh-3zN6oxzRRZ-39" style="edgeStyle=orthogonalEdgeStyle;rounded=0;orthogonalLoop=1;jettySize=auto;html=1;exitX=0;exitY=0.5;exitDx=0;exitDy=0;startArrow=classicThin;startFill=1;endArrow=none;endFill=0;" edge="1" parent="1" source="9j_dZQjuh-3zN6oxzRRZ-38">
          <mxGeometry relative="1" as="geometry">
            <mxPoint x="570" y="330" as="targetPoint" />
            <Array as="points">
              <mxPoint x="700" y="360" />
              <mxPoint x="570" y="360" />
            </Array>
          </mxGeometry>
        </mxCell>
        <mxCell id="9j_dZQjuh-3zN6oxzRRZ-40" value="sub task info" style="edgeLabel;html=1;align=center;verticalAlign=middle;resizable=0;points=[];fontSize=12;" vertex="1" connectable="0" parent="9j_dZQjuh-3zN6oxzRRZ-39">
          <mxGeometry x="-0.2067" y="3" relative="1" as="geometry">
            <mxPoint x="-12" y="-3" as="offset" />
          </mxGeometry>
        </mxCell>
        <mxCell id="9j_dZQjuh-3zN6oxzRRZ-38" value="/follow_task_info" style="rounded=0;whiteSpace=wrap;html=1;" vertex="1" parent="1">
          <mxGeometry x="700" y="340" width="160" height="40" as="geometry" />
        </mxCell>
        <mxCell id="9j_dZQjuh-3zN6oxzRRZ-43" value="goal:&lt;br&gt;1. task id&lt;br&gt;2. map id&lt;br&gt;3. TargetPose&lt;br&gt;4. Abort" style="rounded=0;whiteSpace=wrap;html=1;" vertex="1" parent="1">
          <mxGeometry x="400" y="320" width="160" height="80" as="geometry" />
        </mxCell>
        <mxCell id="9j_dZQjuh-3zN6oxzRRZ-46" style="edgeStyle=orthogonalEdgeStyle;rounded=0;orthogonalLoop=1;jettySize=auto;html=1;startArrow=none;startFill=0;endArrow=classicThin;endFill=1;" edge="1" parent="1">
          <mxGeometry relative="1" as="geometry">
            <mxPoint x="170" y="399" as="sourcePoint" />
            <mxPoint x="380" y="399" as="targetPoint" />
          </mxGeometry>
        </mxCell>
        <mxCell id="9j_dZQjuh-3zN6oxzRRZ-50" value="send &lt;b&gt;feedback&lt;/b&gt;" style="edgeLabel;html=1;align=center;verticalAlign=middle;resizable=0;points=[];fontSize=12;" vertex="1" connectable="0" parent="9j_dZQjuh-3zN6oxzRRZ-46">
          <mxGeometry x="-0.155" y="1" relative="1" as="geometry">
            <mxPoint as="offset" />
          </mxGeometry>
        </mxCell>
        <mxCell id="9j_dZQjuh-3zN6oxzRRZ-45" value="Task in progress:&lt;br&gt;server.publishFeedback()" style="rounded=0;whiteSpace=wrap;html=1;" vertex="1" parent="1">
          <mxGeometry y="350" width="160" height="40" as="geometry" />
        </mxCell>
        <mxCell id="9j_dZQjuh-3zN6oxzRRZ-47" value="Task completed:&lt;br&gt;server.setSucceeded()" style="rounded=0;whiteSpace=wrap;html=1;" vertex="1" parent="1">
          <mxGeometry y="420" width="160" height="40" as="geometry" />
        </mxCell>
        <mxCell id="9j_dZQjuh-3zN6oxzRRZ-48" value="Task aborted:&lt;br&gt;server.setAborted()" style="rounded=0;whiteSpace=wrap;html=1;" vertex="1" parent="1">
          <mxGeometry y="470" width="160" height="40" as="geometry" />
        </mxCell>
        <mxCell id="9j_dZQjuh-3zN6oxzRRZ-56" value="FeedbackCallback()" style="rounded=0;whiteSpace=wrap;html=1;" vertex="1" parent="1">
          <mxGeometry x="400" y="450" width="160" height="30" as="geometry" />
        </mxCell>
        <mxCell id="9j_dZQjuh-3zN6oxzRRZ-57" value="ActiveCallback()" style="rounded=0;whiteSpace=wrap;html=1;" vertex="1" parent="1">
          <mxGeometry x="400" y="410" width="160" height="30" as="geometry" />
        </mxCell>
        <mxCell id="9j_dZQjuh-3zN6oxzRRZ-58" value="DoneCallback()" style="rounded=0;whiteSpace=wrap;html=1;" vertex="1" parent="1">
          <mxGeometry x="400" y="490" width="160" height="30" as="geometry" />
        </mxCell>
        <mxCell id="9j_dZQjuh-3zN6oxzRRZ-59" value="" style="endArrow=none;dashed=1;html=1;dashPattern=1 3;strokeWidth=2;fontSize=12;" edge="1" parent="1">
          <mxGeometry width="50" height="50" relative="1" as="geometry">
            <mxPoint x="280" y="630" as="sourcePoint" />
            <mxPoint x="280" as="targetPoint" />
          </mxGeometry>
        </mxCell>
        <mxCell id="9j_dZQjuh-3zN6oxzRRZ-65" style="edgeStyle=orthogonalEdgeStyle;rounded=0;orthogonalLoop=1;jettySize=auto;html=1;exitX=1;exitY=0.5;exitDx=0;exitDy=0;entryX=-0.009;entryY=0.321;entryDx=0;entryDy=0;entryPerimeter=0;fontSize=12;startArrow=classicThin;startFill=1;endArrow=none;endFill=0;" edge="1" parent="1" source="9j_dZQjuh-3zN6oxzRRZ-63" target="9j_dZQjuh-3zN6oxzRRZ-51">
          <mxGeometry relative="1" as="geometry" />
        </mxCell>
        <mxCell id="9j_dZQjuh-3zN6oxzRRZ-66" value="sub global path" style="edgeLabel;html=1;align=center;verticalAlign=middle;resizable=0;points=[];fontSize=12;" vertex="1" connectable="0" parent="9j_dZQjuh-3zN6oxzRRZ-65">
          <mxGeometry x="0.1923" y="1" relative="1" as="geometry">
            <mxPoint x="-9" y="1" as="offset" />
          </mxGeometry>
        </mxCell>
        <mxCell id="9j_dZQjuh-3zN6oxzRRZ-63" value="/sweep_path" style="rounded=0;whiteSpace=wrap;html=1;" vertex="1" parent="1">
          <mxGeometry x="-300" y="340" width="140" height="40" as="geometry" />
        </mxCell>
        <mxCell id="9j_dZQjuh-3zN6oxzRRZ-67" style="edgeStyle=orthogonalEdgeStyle;rounded=0;orthogonalLoop=1;jettySize=auto;html=1;exitX=1;exitY=0.5;exitDx=0;exitDy=0;entryX=-0.004;entryY=0.561;entryDx=0;entryDy=0;entryPerimeter=0;fontSize=12;startArrow=classicThin;startFill=1;endArrow=none;endFill=0;" edge="1" parent="1" source="9j_dZQjuh-3zN6oxzRRZ-64" target="9j_dZQjuh-3zN6oxzRRZ-51">
          <mxGeometry relative="1" as="geometry" />
        </mxCell>
        <mxCell id="9j_dZQjuh-3zN6oxzRRZ-68" value="sub global pose" style="edgeLabel;html=1;align=center;verticalAlign=middle;resizable=0;points=[];fontSize=12;" vertex="1" connectable="0" parent="9j_dZQjuh-3zN6oxzRRZ-67">
          <mxGeometry x="-0.3422" y="1" relative="1" as="geometry">
            <mxPoint x="31" y="1" as="offset" />
          </mxGeometry>
        </mxCell>
        <mxCell id="9j_dZQjuh-3zN6oxzRRZ-64" value="/ndt/current_pose&lt;br&gt;for progress info" style="rounded=0;whiteSpace=wrap;html=1;dashed=1;" vertex="1" parent="1">
          <mxGeometry x="-300" y="400" width="140" height="40" as="geometry" />
        </mxCell>
        <mxCell id="9j_dZQjuh-3zN6oxzRRZ-71" style="edgeStyle=orthogonalEdgeStyle;rounded=0;orthogonalLoop=1;jettySize=auto;html=1;exitX=1;exitY=0.5;exitDx=0;exitDy=0;entryX=-0.004;entryY=0.839;entryDx=0;entryDy=0;entryPerimeter=0;fontSize=12;startArrow=classicThin;startFill=1;endArrow=none;endFill=0;" edge="1" parent="1" source="9j_dZQjuh-3zN6oxzRRZ-70" target="9j_dZQjuh-3zN6oxzRRZ-51">
          <mxGeometry relative="1" as="geometry" />
        </mxCell>
        <mxCell id="9j_dZQjuh-3zN6oxzRRZ-72" value="pub control info" style="edgeLabel;html=1;align=center;verticalAlign=middle;resizable=0;points=[];fontSize=12;" vertex="1" connectable="0" parent="9j_dZQjuh-3zN6oxzRRZ-71">
          <mxGeometry x="-0.315" relative="1" as="geometry">
            <mxPoint x="29" as="offset" />
          </mxGeometry>
        </mxCell>
        <mxCell id="9j_dZQjuh-3zN6oxzRRZ-70" value="/vehicle_cmd" style="rounded=0;whiteSpace=wrap;html=1;" vertex="1" parent="1">
          <mxGeometry x="-300" y="470" width="140" height="40" as="geometry" />
        </mxCell>
        <mxCell id="9j_dZQjuh-3zN6oxzRRZ-73" value="" style="endArrow=none;dashed=1;html=1;dashPattern=1 3;strokeWidth=2;fontSize=12;" edge="1" parent="1">
          <mxGeometry width="50" height="50" relative="1" as="geometry">
            <mxPoint x="640" y="630" as="sourcePoint" />
            <mxPoint x="640" as="targetPoint" />
          </mxGeometry>
        </mxCell>
        <mxCell id="9j_dZQjuh-3zN6oxzRRZ-74" value="" style="endArrow=none;dashed=1;html=1;dashPattern=1 3;strokeWidth=2;fontSize=12;" edge="1" parent="1">
          <mxGeometry width="50" height="50" relative="1" as="geometry">
            <mxPoint x="920" y="630" as="sourcePoint" />
            <mxPoint x="920" as="targetPoint" />
          </mxGeometry>
        </mxCell>
        <mxCell id="9j_dZQjuh-3zN6oxzRRZ-75" value="&lt;font style=&quot;font-size: 14px&quot;&gt;&lt;b&gt;CommunicationNode&lt;/b&gt;&lt;/font&gt;" style="text;html=1;strokeColor=none;fillColor=none;align=center;verticalAlign=middle;whiteSpace=wrap;rounded=0;" vertex="1" parent="1">
          <mxGeometry x="700" y="240" width="160" height="40" as="geometry" />
        </mxCell>
        <mxCell id="9j_dZQjuh-3zN6oxzRRZ-76" value="&lt;font style=&quot;font-size: 14px&quot;&gt;&lt;b&gt;APP&lt;/b&gt;&lt;/font&gt;" style="text;html=1;strokeColor=none;fillColor=none;align=center;verticalAlign=middle;whiteSpace=wrap;rounded=0;" vertex="1" parent="1">
          <mxGeometry x="980" y="170" width="160" height="40" as="geometry" />
        </mxCell>
        <mxCell id="9j_dZQjuh-3zN6oxzRRZ-79" style="edgeStyle=orthogonalEdgeStyle;rounded=0;orthogonalLoop=1;jettySize=auto;html=1;exitX=0;exitY=0.5;exitDx=0;exitDy=0;entryX=1;entryY=0.5;entryDx=0;entryDy=0;fontSize=12;startArrow=none;startFill=0;endArrow=classicThin;endFill=1;" edge="1" parent="1" source="9j_dZQjuh-3zN6oxzRRZ-78">
          <mxGeometry relative="1" as="geometry">
            <mxPoint x="1140" y="260" as="targetPoint" />
          </mxGeometry>
        </mxCell>
        <mxCell id="9j_dZQjuh-3zN6oxzRRZ-80" value="load map" style="edgeLabel;html=1;align=center;verticalAlign=middle;resizable=0;points=[];fontSize=12;" vertex="1" connectable="0" parent="9j_dZQjuh-3zN6oxzRRZ-79">
          <mxGeometry x="-0.24" y="-1" relative="1" as="geometry">
            <mxPoint as="offset" />
          </mxGeometry>
        </mxCell>
        <mxCell id="9j_dZQjuh-3zN6oxzRRZ-78" value="ADT map server" style="rounded=0;whiteSpace=wrap;html=1;" vertex="1" parent="1">
          <mxGeometry x="1260" y="240" width="160" height="40" as="geometry" />
        </mxCell>
        <mxCell id="9j_dZQjuh-3zN6oxzRRZ-84" style="edgeStyle=orthogonalEdgeStyle;rounded=0;orthogonalLoop=1;jettySize=auto;html=1;exitX=0;exitY=0.5;exitDx=0;exitDy=0;entryX=1;entryY=0.5;entryDx=0;entryDy=0;fontSize=12;startArrow=none;startFill=0;endArrow=classicThin;endFill=1;" edge="1" parent="1" source="9j_dZQjuh-3zN6oxzRRZ-81" target="9j_dZQjuh-3zN6oxzRRZ-38">
          <mxGeometry relative="1" as="geometry" />
        </mxCell>
        <mxCell id="9j_dZQjuh-3zN6oxzRRZ-87" value="send task info" style="edgeLabel;html=1;align=center;verticalAlign=middle;resizable=0;points=[];fontSize=12;" vertex="1" connectable="0" parent="9j_dZQjuh-3zN6oxzRRZ-84">
          <mxGeometry x="0.2333" y="1" relative="1" as="geometry">
            <mxPoint x="14" y="-1" as="offset" />
          </mxGeometry>
        </mxCell>
        <mxCell id="9j_dZQjuh-3zN6oxzRRZ-95" style="edgeStyle=orthogonalEdgeStyle;rounded=0;orthogonalLoop=1;jettySize=auto;html=1;exitX=0.5;exitY=1;exitDx=0;exitDy=0;entryX=0.5;entryY=0;entryDx=0;entryDy=0;fontSize=12;startArrow=none;startFill=0;endArrow=classicThin;endFill=1;" edge="1" parent="1" source="9j_dZQjuh-3zN6oxzRRZ-81" target="9j_dZQjuh-3zN6oxzRRZ-92">
          <mxGeometry relative="1" as="geometry" />
        </mxCell>
        <mxCell id="9j_dZQjuh-3zN6oxzRRZ-81" value="configuration task&lt;br&gt;1. set tast_id&lt;br&gt;2. set map_id&lt;br&gt;3. set target_pose&lt;br&gt;4. abort order" style="rounded=0;whiteSpace=wrap;html=1;" vertex="1" parent="1">
          <mxGeometry x="980" y="310" width="160" height="100" as="geometry" />
        </mxCell>
        <mxCell id="9j_dZQjuh-3zN6oxzRRZ-83" style="edgeStyle=orthogonalEdgeStyle;rounded=0;orthogonalLoop=1;jettySize=auto;html=1;exitX=0.5;exitY=1;exitDx=0;exitDy=0;entryX=0.5;entryY=0;entryDx=0;entryDy=0;fontSize=12;startArrow=none;startFill=0;endArrow=classicThin;endFill=1;" edge="1" parent="1" source="9j_dZQjuh-3zN6oxzRRZ-82" target="9j_dZQjuh-3zN6oxzRRZ-81">
          <mxGeometry relative="1" as="geometry" />
        </mxCell>
        <mxCell id="9j_dZQjuh-3zN6oxzRRZ-82" value="connect map server&amp;nbsp;&lt;br&gt;load map" style="rounded=0;whiteSpace=wrap;html=1;" vertex="1" parent="1">
          <mxGeometry x="980" y="240" width="160" height="40" as="geometry" />
        </mxCell>
        <mxCell id="9j_dZQjuh-3zN6oxzRRZ-90" style="edgeStyle=orthogonalEdgeStyle;rounded=0;orthogonalLoop=1;jettySize=auto;html=1;exitX=0;exitY=0.5;exitDx=0;exitDy=0;entryX=1.013;entryY=0.69;entryDx=0;entryDy=0;entryPerimeter=0;fontSize=12;startArrow=classicThin;startFill=1;endArrow=none;endFill=0;" edge="1" parent="1" source="9j_dZQjuh-3zN6oxzRRZ-89" target="9j_dZQjuh-3zN6oxzRRZ-53">
          <mxGeometry relative="1" as="geometry" />
        </mxCell>
        <mxCell id="9j_dZQjuh-3zN6oxzRRZ-91" value="pub progress info" style="edgeLabel;html=1;align=center;verticalAlign=middle;resizable=0;points=[];fontSize=12;" vertex="1" connectable="0" parent="9j_dZQjuh-3zN6oxzRRZ-90">
          <mxGeometry x="0.2818" relative="1" as="geometry">
            <mxPoint x="11" y="1" as="offset" />
          </mxGeometry>
        </mxCell>
        <mxCell id="9j_dZQjuh-3zN6oxzRRZ-93" style="edgeStyle=orthogonalEdgeStyle;rounded=0;orthogonalLoop=1;jettySize=auto;html=1;exitX=1;exitY=0.5;exitDx=0;exitDy=0;entryX=0;entryY=0.5;entryDx=0;entryDy=0;fontSize=12;startArrow=classicThin;startFill=1;endArrow=none;endFill=0;" edge="1" parent="1" source="9j_dZQjuh-3zN6oxzRRZ-89" target="9j_dZQjuh-3zN6oxzRRZ-92">
          <mxGeometry relative="1" as="geometry" />
        </mxCell>
        <mxCell id="9j_dZQjuh-3zN6oxzRRZ-94" value="receive reply" style="edgeLabel;html=1;align=center;verticalAlign=middle;resizable=0;points=[];fontSize=12;" vertex="1" connectable="0" parent="9j_dZQjuh-3zN6oxzRRZ-93">
          <mxGeometry x="-0.3067" y="1" relative="1" as="geometry">
            <mxPoint x="18" y="1" as="offset" />
          </mxGeometry>
        </mxCell>
        <mxCell id="9j_dZQjuh-3zN6oxzRRZ-89" value="/task_progress" style="rounded=0;whiteSpace=wrap;html=1;" vertex="1" parent="1">
          <mxGeometry x="700" y="440" width="160" height="40" as="geometry" />
        </mxCell>
        <mxCell id="9j_dZQjuh-3zN6oxzRRZ-92" value="track task progress" style="rounded=0;whiteSpace=wrap;html=1;" vertex="1" parent="1">
          <mxGeometry x="980" y="440" width="160" height="40" as="geometry" />
        </mxCell>
        <mxCell id="9j_dZQjuh-3zN6oxzRRZ-99" style="edgeStyle=orthogonalEdgeStyle;rounded=0;orthogonalLoop=1;jettySize=auto;html=1;exitX=1;exitY=0.5;exitDx=0;exitDy=0;fontSize=12;startArrow=none;startFill=0;endArrow=classicThin;endFill=1;" edge="1" parent="1" source="9j_dZQjuh-3zN6oxzRRZ-96">
          <mxGeometry relative="1" as="geometry">
            <mxPoint x="-10" y="320" as="targetPoint" />
            <Array as="points">
              <mxPoint x="-100" y="300" />
              <mxPoint x="-100" y="320" />
            </Array>
          </mxGeometry>
        </mxCell>
        <mxCell id="9j_dZQjuh-3zN6oxzRRZ-96" value="ADT map server" style="rounded=0;whiteSpace=wrap;html=1;" vertex="1" parent="1">
          <mxGeometry x="-300" y="280" width="140" height="40" as="geometry" />
        </mxCell>
        <mxCell id="9j_dZQjuh-3zN6oxzRRZ-98" style="edgeStyle=orthogonalEdgeStyle;rounded=0;orthogonalLoop=1;jettySize=auto;html=1;exitX=1;exitY=0.5;exitDx=0;exitDy=0;entryX=-0.004;entryY=0.158;entryDx=0;entryDy=0;entryPerimeter=0;fontSize=12;startArrow=none;startFill=0;endArrow=classicThin;endFill=1;" edge="1" parent="1" source="9j_dZQjuh-3zN6oxzRRZ-97" target="9j_dZQjuh-3zN6oxzRRZ-51">
          <mxGeometry relative="1" as="geometry">
            <Array as="points">
              <mxPoint x="-100" y="260" />
              <mxPoint x="-100" y="320" />
            </Array>
          </mxGeometry>
        </mxCell>
        <mxCell id="9j_dZQjuh-3zN6oxzRRZ-100" value="load map" style="edgeLabel;html=1;align=center;verticalAlign=middle;resizable=0;points=[];fontSize=12;" vertex="1" connectable="0" parent="9j_dZQjuh-3zN6oxzRRZ-98">
          <mxGeometry x="0.4608" y="2" relative="1" as="geometry">
            <mxPoint x="13" y="3" as="offset" />
          </mxGeometry>
        </mxCell>
        <mxCell id="9j_dZQjuh-3zN6oxzRRZ-97" value="local map" style="rounded=0;whiteSpace=wrap;html=1;" vertex="1" parent="1">
          <mxGeometry x="-300" y="240" width="140" height="40" as="geometry" />
        </mxCell>
      </root>
    </mxGraphModel>
  </diagram>
</mxfile>
